<svg width="24" height="24" viewBox="0 0 24 24" fill="none" xmlns="http://www.w3.org/2000/svg">
<g id="&#208;&#159;&#208;&#190;&#208;&#180;&#208;&#181;&#208;&#187;&#208;&#184;&#209;&#130;&#209;&#140;&#209;&#129;&#209;&#143;">
<path id="Vector" d="M5.5 9.74995V20.25C5.5 20.388 5.612 20.5 5.75 20.5H18.25C18.3163 20.5 18.3799 20.4736 18.4268 20.4267C18.4737 20.3798 18.5 20.3163 18.5 20.25V9.74995C18.5 9.68365 18.4737 9.62006 18.4268 9.57317C18.3799 9.52629 18.3163 9.49995 18.25 9.49995H15.75C15.5511 9.49995 15.3603 9.42093 15.2197 9.28028C15.079 9.13963 15 8.94886 15 8.74995C15 8.55104 15.079 8.36027 15.2197 8.21962C15.3603 8.07897 15.5511 7.99995 15.75 7.99995H18.25C19.216 7.99995 20 8.78395 20 9.74995V20.25C20 20.7141 19.8156 21.1592 19.4874 21.4874C19.1592 21.8156 18.7141 22 18.25 22H5.75C5.28587 22 4.84075 21.8156 4.51256 21.4874C4.18437 21.1592 4 20.7141 4 20.25V9.74995C4 8.78395 4.784 7.99995 5.75 7.99995H8.25C8.44891 7.99995 8.63968 8.07897 8.78033 8.21962C8.92098 8.36027 9 8.55104 9 8.74995C9 8.94886 8.92098 9.13963 8.78033 9.28028C8.63968 9.42093 8.44891 9.49995 8.25 9.49995H5.75C5.6837 9.49995 5.62011 9.52629 5.57322 9.57317C5.52634 9.62006 5.5 9.68365 5.5 9.74995ZM12.53 1.21995L15.78 4.46995C15.8787 4.56162 15.9509 4.67822 15.9889 4.80747C16.0269 4.93672 16.0294 5.07383 15.996 5.20436C15.9626 5.33488 15.8947 5.45399 15.7993 5.54913C15.7039 5.64427 15.5846 5.71192 15.454 5.74495C15.3236 5.77826 15.1867 5.77587 15.0575 5.73805C14.9284 5.70022 14.8118 5.62834 14.72 5.52995L12.75 3.55995V14.25C12.75 14.4489 12.671 14.6396 12.5303 14.7803C12.3897 14.9209 12.1989 15 12 15C11.8011 15 11.6103 14.9209 11.4697 14.7803C11.329 14.6396 11.25 14.4489 11.25 14.25V3.55995L9.28 5.52995C9.13785 5.66259 8.94975 5.73485 8.75536 5.7315C8.56097 5.72814 8.37548 5.64942 8.238 5.51195C8.10053 5.37447 8.02181 5.18898 8.01846 4.99459C8.0151 4.8002 8.08736 4.6121 8.22 4.46995L11.47 1.21995C11.6106 1.0795 11.8012 1.00061 12 1.00061C12.1988 1.00061 12.3894 1.0795 12.53 1.21995Z" fill="black"/>
</g>
</svg>
